<svg xmlns="http://www.w3.org/2000/svg" width="114" height="114" viewBox="0 0 114 114" fill="none">
  <path d="M23.237 45.6665C23.237 43.757 24.7712 42.2085 26.6665 42.2085H44.9825C46.8825 42.2085 48.4167 43.757 48.4167 45.6665C48.4186 46.1194 48.3313 46.5682 48.1597 46.9873C47.9881 47.4064 47.7357 47.7876 47.4168 48.1091C47.0979 48.4307 46.7187 48.6863 46.3011 48.8613C45.8834 49.0363 45.4353 49.1274 44.9825 49.1292H26.6665C25.7527 49.1242 24.8783 48.7567 24.2352 48.1075C23.5922 47.4582 23.2332 46.5803 23.237 45.6665Z" fill="#105D38"/>
  <path fill-rule="evenodd" clip-rule="evenodd" d="M100.643 47.5191C100.345 47.5032 100.029 47.4969 99.693 47.5001H86.5213C75.734 47.5001 66.5 55.7461 66.5 66.5001C66.5 77.2541 75.734 85.5001 86.5213 85.5001H99.693C100.029 85.5032 100.345 85.4969 100.643 85.4811C105.027 85.2151 108.903 81.8853 109.231 77.2303C109.25 76.9263 109.25 76.5986 109.25 76.2946V56.7056C109.25 56.4016 109.25 56.0738 109.231 55.7698C108.903 51.1148 105.027 47.7898 100.643 47.5191ZM85.3623 71.5683C88.1363 71.5683 90.3877 69.2978 90.3877 66.5001C90.3877 63.6976 88.1363 61.4318 85.3623 61.4318C82.5883 61.4318 80.3272 63.7023 80.3272 66.5001C80.3272 69.3026 82.5835 71.5683 85.3623 71.5683Z" fill="#FFB668"/>
  <path opacity="0.5" d="M100.415 47.5095C100.415 41.8997 100.206 35.8815 96.6245 31.5732C96.2733 31.1521 95.904 30.7464 95.5177 30.3572C91.96 26.8042 87.4523 25.2272 81.8853 24.4767C76.4703 23.75 69.559 23.75 60.8285 23.75H50.7965C42.066 23.75 35.15 23.75 29.735 24.4767C24.168 25.2272 19.6603 26.8042 16.1025 30.3572C12.5495 33.915 10.9725 38.4227 10.222 43.9897C9.5 49.4047 9.5 56.316 9.5 65.0465V65.5785C9.5 74.309 9.5 81.225 10.2268 86.6353C10.9773 92.2023 12.5543 96.71 16.1073 100.268C19.665 103.821 24.1728 105.398 29.7397 106.148C35.1548 106.875 42.066 106.875 50.7965 106.875H60.8285C69.559 106.875 76.475 106.875 81.8853 106.148C87.4523 105.398 91.96 103.821 95.5177 100.268C96.4836 99.2924 97.3164 98.2474 98.0163 97.1327C100.154 93.7127 100.41 89.5233 100.41 85.4953L99.6978 85.5H86.5212C75.734 85.5 66.5 77.254 66.5 66.5C66.5 55.746 75.734 47.5 86.5212 47.5H99.693C99.9432 47.5 100.187 47.5032 100.415 47.5095Z" fill="#105D38"/>
</svg>

